HIERARCHY
ROOT Hips
{
	OFFSET -0.001795 -0.223333 0.028219
	CHANNELS 6 Xposition Yposition Zposition Zrotation Yrotation Xrotation 
	JOINT LeftUpLeg
	{
		OFFSET 0.069520 -0.091406 -0.006815
		CHANNELS 3 Zrotation Yrotation Xrotation
		JOINT LeftLeg
		{
			OFFSET 0.034277 -0.375199 -0.004496
			CHANNELS 3 Zrotation Yrotation Xrotation
			JOINT LeftFoot
			{
				OFFSET -0.013596 -0.397961 -0.043693
				CHANNELS 3 Zrotation Yrotation Xrotation
				JOINT LeftToe
				{
					OFFSET 0.026358 -0.055791 0.119288
					CHANNELS 3 Zrotation Yrotation Xrotation
					End Site
					{
						OFFSET 0.000000 0.000000 0.000000
					}
				}
			}
		}
	}
	JOINT RightUpLeg
	{
		OFFSET -0.067670 -0.090522 -0.004320
		CHANNELS 3 Zrotation Yrotation Xrotation
		JOINT RightLeg
		{
			OFFSET -0.038290 -0.382569 -0.008850
			CHANNELS 3 Zrotation Yrotation Xrotation
			JOINT RightFoot
			{
				OFFSET 0.015774 -0.398415 -0.042312
				CHANNELS 3 Zrotation Yrotation Xrotation
				JOINT RightToe
				{
					OFFSET -0.025372 -0.048144 0.123348
					CHANNELS 3 Zrotation Yrotation Xrotation
					End Site
					{
						OFFSET 0.000000 0.000000 0.000000
					}
				}
			}
		}
	}
	JOINT Spine
	{
		OFFSET -0.002533 0.108963 -0.026696
		CHANNELS 3 Zrotation Yrotation Xrotation
		JOINT Spine1
		{
			OFFSET 0.005487 0.135180 0.001092
			CHANNELS 3 Zrotation Yrotation Xrotation
			JOINT Spine2
			{
				OFFSET 0.001457 0.052922 0.025425
				CHANNELS 3 Zrotation Yrotation Xrotation
				JOINT Neck
				{
					OFFSET -0.002778 0.213870 -0.042857
					CHANNELS 3 Zrotation Yrotation Xrotation
					JOINT Head
					{
						OFFSET 0.005152 0.064970 0.051349
						CHANNELS 3 Zrotation Yrotation Xrotation
						End Site
						{
							OFFSET 0.000000 0.000000 0.000000
						}
					}
				}
				JOINT LeftShoulder
				{
					OFFSET 0.078845 0.121749 -0.034090
					CHANNELS 3 Zrotation Yrotation Xrotation
					JOINT LeftArm
					{
						OFFSET 0.090977 0.030469 -0.008868
						CHANNELS 3 Zrotation Yrotation Xrotation
						JOINT LeftForeArm
						{
							OFFSET 0.259612 -0.012772 -0.027456
							CHANNELS 3 Zrotation Yrotation Xrotation
							JOINT LeftHand
							{
								OFFSET 0.249234 0.008986 -0.001171
								CHANNELS 3 Zrotation Yrotation Xrotation
								End Site
								{
									OFFSET 0.000000 0.000000 0.000000
								}
							}
						}
					}
				}
				JOINT RightShoulder
				{
					OFFSET -0.081759 0.118833 -0.038615
					CHANNELS 3 Zrotation Yrotation Xrotation
					JOINT RightArm
					{
						OFFSET -0.096012 0.032551 -0.009143
						CHANNELS 3 Zrotation Yrotation Xrotation
						JOINT RightForeArm
						{
							OFFSET -0.253742 -0.013329 -0.021401
							CHANNELS 3 Zrotation Yrotation Xrotation
							JOINT RightHand
							{
								OFFSET -0.255298 0.007772 -0.005559
								CHANNELS 3 Zrotation Yrotation Xrotation
								End Site
								{
									OFFSET 0.000000 0.000000 0.000000
								}
							}
						}
					}
				}
			}
		}
	}
}
MOTION
Frames: 6
Frame Time: 0.050000
-0.211294 0.934319 0.585097 3.456492 52.248523 8.494616 9.172271 -6.953805 -36.079996 -10.161012 -0.758450 14.729903 8.757268 24.748877 20.680019 0.000000 0.000000 0.000000 3.984951 0.414307 -2.195347 -2.839005 -0.260431 10.801965 2.280717 3.626873 -3.516456 0.000000 0.000000 0.000000 6.582450 -1.186895 7.346363 -3.145125 1.746877 -25.763288 1.067953 18.674357 30.981743 11.872930 2.872785 -24.634824 0.000000 0.000000 0.000000 3.957484 -1.634397 -0.055135 -56.110482 -6.129718 -12.025467 -111.892263 -71.818485 72.432800 0.000000 0.000000 0.000000 5.503096 -6.423397 0.122481 70.838727 8.913316 8.365414 5.476179 29.412017 3.545095 0.000000 0.000000 0.000000 
-0.193382 0.926746 0.602641 2.158800 48.998653 7.345933 8.887593 -6.809951 -36.613380 -8.096528 -0.273248 8.056860 7.188212 23.182433 21.183999 0.000000 0.000000 0.000000 4.316505 0.311977 -1.189365 -2.730915 -0.383844 12.614332 3.021917 5.957800 -5.077549 0.000000 0.000000 0.000000 5.860061 -1.135920 7.839946 -2.598715 1.599183 -26.324694 1.842451 20.027856 31.478469 12.016500 3.036116 -26.016990 0.000000 0.000000 0.000000 4.399464 -1.599035 0.293723 -56.528550 -5.320753 -12.607034 -107.387955 -74.408858 71.422266 0.000000 0.000000 0.000000 5.654714 -6.866003 -0.141693 71.496283 10.539555 9.405460 6.212818 32.024500 4.537955 0.000000 0.000000 0.000000 
-0.171619 0.916686 0.624836 1.415409 44.953184 6.324913 9.555925 -6.190155 -36.508373 -7.701901 -0.096042 1.843416 6.622811 22.544768 22.634206 0.000000 0.000000 0.000000 4.741620 0.082184 0.456775 -3.830132 -0.130103 14.730839 3.434107 7.886096 -8.696685 0.000000 0.000000 0.000000 5.066681 -1.079234 8.423112 -2.235464 1.490514 -26.919179 2.014406 21.875528 31.286951 12.365219 2.495221 -25.295421 0.000000 0.000000 0.000000 4.793134 -1.006138 0.521026 -56.914900 -4.895594 -12.956472 -104.237102 -78.943529 74.085829 0.000000 0.000000 0.000000 7.507280 -6.542569 0.822820 70.519685 12.254235 8.888554 7.539051 35.884825 6.159794 0.000000 0.000000 0.000000 
-0.145887 0.903378 0.652559 1.472708 42.353962 5.516351 9.350468 -5.922840 -36.488117 -6.985050 -0.066129 -0.773385 4.807761 20.420684 23.862747 0.000000 0.000000 0.000000 3.843676 -0.457099 3.616740 -3.315883 -0.248419 15.669666 3.617562 9.650143 -11.475680 0.000000 0.000000 0.000000 4.214325 -0.948161 8.455537 -2.536014 1.537469 -26.847750 1.929651 22.695821 31.381615 12.615477 2.193100 -25.255903 0.000000 0.000000 0.000000 5.320855 -2.481792 1.361461 -57.108805 -5.893218 -12.668904 -96.026463 -85.004881 72.692697 0.000000 0.000000 0.000000 9.022092 -5.788571 1.912474 71.496408 12.957657 8.656969 6.571159 38.347512 6.622901 0.000000 0.000000 0.000000 
-0.116454 0.888995 0.686028 0.918045 40.593639 4.456974 9.500664 -5.567778 -36.091304 -7.807567 -0.036922 -0.463848 4.387522 20.218204 26.640833 0.000000 0.000000 0.000000 3.236777 -1.148945 7.247241 -3.406189 -0.144360 16.047454 4.115794 12.660387 -12.443028 0.000000 0.000000 0.000000 3.601022 -0.859394 8.434234 -3.044893 1.649479 -26.680878 1.271197 22.573632 30.860889 12.975812 1.734786 -25.180001 0.000000 0.000000 0.000000 6.154133 -2.350108 1.951708 -56.435720 -8.948640 -11.115055 -5.586357 -88.313404 -12.248666 0.000000 0.000000 0.000000 10.047287 -5.110262 2.652741 71.805342 13.720901 8.448851 7.124099 39.446483 7.165997 0.000000 0.000000 0.000000 
-0.084372 0.881869 0.725067 0.068530 39.371228 3.891467 10.133534 -5.404424 -36.571206 -8.768496 0.085435 3.296294 5.710199 21.786252 29.832216 0.000000 0.000000 0.000000 3.373986 -1.781654 10.101092 -3.450526 -0.180249 17.354922 4.672005 14.651966 -9.693324 0.000000 0.000000 0.000000 3.086116 -0.591140 6.634253 -3.917223 1.894980 -25.325712 1.446459 21.819081 30.488639 11.921495 2.298758 -25.963307 0.000000 0.000000 0.000000 6.682468 -3.896268 2.734300 -55.278233 -11.444712 -9.507277 66.253386 -83.769841 -78.172907 0.000000 0.000000 0.000000 9.078516 -3.839293 2.765991 73.181227 12.892915 8.370395 8.707283 40.048517 7.894818 0.000000 0.000000 0.000000 
